<svg width="6" height="6" viewBox="0 0 6 6" fill="none" xmlns="http://www.w3.org/2000/svg">
<path d="M5.0639 4.34464L4.39504 4.26207C4.31639 4.25209 4.23667 4.2615 4.16187 4.28961C4.08707 4.31772 4.01914 4.36379 3.96317 4.42436L3.47864 4.94822C2.73114 4.53708 2.12354 3.88017 1.74327 3.072L2.23044 2.54529C2.34367 2.42286 2.39897 2.25204 2.38054 2.07836L2.30417 1.3609C2.2893 1.22199 2.22766 1.09385 2.13102 1.00091C2.03437 0.907978 1.90948 0.85674 1.78014 0.856969H1.32457C1.027 0.856969 0.77947 1.12459 0.797903 1.44631C0.93747 3.87772 2.73604 5.81943 4.98227 5.97032C5.27984 5.99025 5.52737 5.72262 5.52737 5.4009V4.90836C5.53 4.62081 5.32987 4.3788 5.0639 4.34464Z" fill="#0089B2"/>
</svg>
