<svg width="5" height="5" viewBox="0 0 5 5" fill="none" xmlns="http://www.w3.org/2000/svg">
<path d="M2.5 0C1.11942 0 0 1.11942 0 2.5C0 3.88058 1.11942 5 2.5 5C3.88058 5 5 3.88058 5 2.5C5 1.11942 3.88058 0 2.5 0ZM3.5798 1.68359L2.40458 3.31306C2.38815 3.33598 2.3665 3.35466 2.34141 3.36755C2.31632 3.38044 2.28853 3.38716 2.26032 3.38716C2.23212 3.38716 2.20432 3.38044 2.17924 3.36755C2.15415 3.35466 2.1325 3.33598 2.11607 3.31306L1.4202 2.34877C1.399 2.3192 1.4202 2.2779 1.45647 2.2779H1.71819C1.77511 2.2779 1.82924 2.30525 1.86272 2.35212L2.26004 2.90346L3.13728 1.68694C3.17076 1.64062 3.22433 1.61272 3.28181 1.61272H3.54353C3.5798 1.61272 3.601 1.65402 3.5798 1.68359Z" fill="#0089B2"/>
</svg>
