<svg width="9" height="7" viewBox="0 0 9 7" fill="none" xmlns="http://www.w3.org/2000/svg">
<path d="M7.61213 0.0909119H0.515885C0.381454 0.0909119 0.252528 0.148649 0.157471 0.251422C0.062413 0.354196 0.00901031 0.493586 0.00901031 0.638929V6.1191C0.00901031 6.26445 0.062413 6.40384 0.157471 6.50661C0.252528 6.60938 0.381454 6.66712 0.515885 6.66712H7.61213C7.74657 6.66712 7.87549 6.60938 7.97055 6.50661C8.06561 6.40384 8.11901 6.26445 8.11901 6.1191V0.638929C8.11901 0.493586 8.06561 0.354196 7.97055 0.251422C7.87549 0.148649 7.74657 0.0909119 7.61213 0.0909119ZM7.22184 6.1191H0.936592L2.71065 4.13528L2.3457 3.75441L0.515885 5.80125V1.05542L3.66611 4.44491C3.76108 4.54698 3.88955 4.60427 4.02346 4.60427C4.15737 4.60427 4.28584 4.54698 4.38081 4.44491L7.61213 0.97048V5.76563L5.74683 3.74893L5.38949 4.13528L7.22184 6.1191ZM0.847888 0.638929H7.20157L4.02346 4.05582L0.847888 0.638929Z" fill="#0089B2"/>
</svg>
