<svg width="5" height="5" viewBox="0 0 5 5" fill="none" xmlns="http://www.w3.org/2000/svg">
<g clip-path="url(#clip0_4_39)">
<path d="M4.6875 2.5H4.375C4.35045 2.5 4.33036 2.52009 4.33036 2.54464V4.33036H0.669642V0.669642H2.45536C2.47991 0.669642 2.5 0.649553 2.5 0.624999V0.312499C2.5 0.287946 2.47991 0.267857 2.45536 0.267857H0.446428C0.347656 0.267857 0.267857 0.347656 0.267857 0.446428V4.55357C0.267857 4.65234 0.347656 4.73214 0.446428 4.73214H4.55357C4.65234 4.73214 4.73214 4.65234 4.73214 4.55357V2.54464C4.73214 2.52009 4.71205 2.5 4.6875 2.5Z" fill="#0089B2"/>
<path d="M1.62891 2.62779L1.6183 3.29129C1.61775 3.34096 1.65792 3.3817 1.70759 3.3817H1.70982L2.3683 3.36551C2.37946 3.36495 2.39062 3.36049 2.39844 3.35268L4.71931 1.03683C4.73661 1.01953 4.73661 0.991071 4.71931 0.973772L4.02567 0.280691C4.01674 0.271763 4.00558 0.267857 3.99386 0.267857C3.98214 0.267857 3.97098 0.272321 3.96205 0.280691L1.64174 2.59654C1.63368 2.60497 1.6291 2.61613 1.62891 2.62779ZM1.98326 2.75949L3.99386 0.753348L4.24609 1.00502L2.23437 3.01228L1.97935 3.01841L1.98326 2.75949Z" fill="#0089B2"/>
</g>
<defs>
<clipPath id="clip0_4_39">
<rect width="5" height="5" fill="white"/>
</clipPath>
</defs>
</svg>
