<svg width="5" height="5" viewBox="0 0 5 5" fill="none" xmlns="http://www.w3.org/2000/svg">
<path d="M2.5 0C1.11942 0 0 1.11942 0 2.5C0 3.88058 1.11942 5 2.5 5C3.88058 5 5 3.88058 5 2.5C5 1.11942 3.88058 0 2.5 0ZM3.36328 2.53627L1.99051 3.52958C1.96094 3.55078 1.91964 3.52958 1.91964 3.4933V3.23158C1.91964 3.17467 1.94699 3.12054 1.9933 3.08705L2.80469 2.5L1.9933 1.91295C1.94699 1.87946 1.91964 1.82589 1.91964 1.76842V1.5067C1.91964 1.47042 1.96094 1.44922 1.99051 1.47042L3.36328 2.46373C3.38784 2.48158 3.38784 2.51842 3.36328 2.53627Z" fill="#0089B2"/>
</svg>
