<svg width="8" height="8" viewBox="0 0 8 8" fill="none" xmlns="http://www.w3.org/2000/svg">
<path d="M4.8262 4.46522C4.8498 4.25472 4.8675 4.04422 4.8675 3.82733C4.8675 3.61045 4.8498 3.39995 4.8262 3.18944H5.8233C5.8705 3.39357 5.9 3.60726 5.9 3.82733C5.9 4.04741 5.8705 4.2611 5.8233 4.46522M4.30405 6.23856C4.48105 5.88453 4.61675 5.50179 4.71115 5.10311H5.5814C5.29559 5.6352 4.84216 6.03826 4.30405 6.23856ZM4.2303 4.46522H2.8497C2.8202 4.25472 2.8025 4.04422 2.8025 3.82733C2.8025 3.61045 2.8202 3.39676 2.8497 3.18944H4.2303C4.25685 3.39676 4.2775 3.61045 4.2775 3.82733C4.2775 4.04422 4.25685 4.25472 4.2303 4.46522ZM3.54 6.36613C3.29515 5.9834 3.0975 5.5592 2.97655 5.10311H4.10345C3.9825 5.5592 3.78485 5.9834 3.54 6.36613ZM2.36 2.55155H1.4986C1.7814 2.01797 2.23452 1.61425 2.773 1.41611C2.596 1.77014 2.46325 2.15287 2.36 2.55155ZM1.4986 5.10311H2.36C2.46325 5.50179 2.596 5.88453 2.773 6.23856C2.23558 6.03836 1.78306 5.63517 1.4986 5.10311ZM1.2567 4.46522C1.2095 4.2611 1.18 4.04741 1.18 3.82733C1.18 3.60726 1.2095 3.39357 1.2567 3.18944H2.2538C2.2302 3.39995 2.2125 3.61045 2.2125 3.82733C2.2125 4.04422 2.2302 4.25472 2.2538 4.46522M3.54 1.28534C3.78485 1.66808 3.9825 2.09546 4.10345 2.55155H2.97655C3.0975 2.09546 3.29515 1.66808 3.54 1.28534ZM5.5814 2.55155H4.71115C4.61868 2.15658 4.48197 1.77528 4.30405 1.41611C4.84685 1.61705 5.2982 2.02211 5.5814 2.55155ZM3.54 0.637886C1.90865 0.637886 0.589996 2.07314 0.589996 3.82733C0.589996 4.67323 0.900799 5.48448 1.45403 6.08261C1.72796 6.37878 2.05317 6.61372 2.41108 6.774C2.76899 6.93428 3.1526 7.01678 3.54 7.01678C4.32238 7.01678 5.07273 6.68075 5.62596 6.08261C6.17919 5.48448 6.49 4.67323 6.49 3.82733C6.49 3.40849 6.41369 2.99375 6.26544 2.60678C6.11719 2.21982 5.89989 1.86822 5.62596 1.57205C5.35203 1.27589 5.02682 1.04095 4.66891 0.880668C4.311 0.720384 3.9274 0.637886 3.54 0.637886Z" fill="#0089B2"/>
</svg>
